<?xml version="1.0" encoding="UTF-8"?>
<svg width="734.95" height="350.73" version="1.1" viewBox="0 0 146.99 70.146" xmlns="http://www.w3.org/2000/svg">
<title>amour</title>
<g transform="matrix(2.9879 0 0 2.9879 -113.98 -502.23)">
<path d="m86.671 180.9c-1.385 0-2.5001 1.1151-2.5001 2.5001.0216 1.4199.24642 3.8183-1.0036 4.5078-.7369.37637-1.402.44592-1.9731.44534.17528 1.1926 1.3135 3.1151 3.4795 1.5436.45545.60537 1.1781.99735 1.9973.99735v-4.9995zm-12.233 9.9937a5 5 0 01-2.7352-.66405 5 5 0 01-2.4944-4.33h-.002v-4.9997c1.385 0 2.5001 1.1151 2.5001 2.5001v2.4996h-.002a2.5 2.5 0 001.248 2.1647 2.5 2.5 0 003.4148-.91469 2.5 2.5 0 00.3328-1.2376h-.004v-2.513c0-1.385 1.1151-2.5001 2.5001-2.5001v5.0131h-.00051a5 5 0 01-.66353 2.4877 5 5 0 01-4.0943 2.4939zm-10.231-.66485a5 5 0 001.8298-6.8302 5 5 0 00-6.8297-1.83 5 5 0 00-1.8305 6.83 5 5 0 006.8304 1.8302zm-1.25-2.1652a2.5 2.5 0 01-3.4152-.9151 2.5 2.5 0 01.91535-3.4148 2.5 2.5 0 013.415.91465 2.5 2.5 0 01-.91511 3.4152zm-1.0147-19.297a5 5 0 00-2.7352.66402 5 5 0 00-1.8304 6.8301 5 5 0 006.8306 1.8299 5 5 0 00.49764-.33332c.45516.60891 1.1799 1.0036 2.0019 1.0036v-4.9997h-.006a5 5 0 00-.66404-2.5006 5 5 0 00-4.0943-2.4939zm-.29404 2.4949a2.5 2.5 0 012.2236 1.249 2.5 2.5 0 01-.91468 3.4148 2.5 2.5 0 01-3.4153-.91466 2.5 2.5 0 01.91519-3.4148 2.5 2.5 0 011.1911-.33436zm7.5582-2.4953v9.9955c1.1257 0 2.0726-.73706 2.388-1.7565.0241-.0781.0449-.15756.0615-.23874 6e-5-.00026-8e-5-.00079 0-.001.0164-.0812.0292-.16363.0377-.24753 3e-5-.00026-5e-5-.00079 0-.001.008-.0839.013-.16908.013-.25529v-2.5734a2.5 2.5 0 01.0196-.24908 2.5 2.5 0 01.19999-.70539 2.5 2.5 0 01.0135-.03 2.5 2.5 0 01.97512-1.0862 2.5 2.5 0 01.003-.002 2.5 2.5 0 01.0796-.0434 2.5 2.5 0 01.16277-.0832 2.5 2.5 0 01.0661-.0279 2.5 2.5 0 01.17105-.0667 2.5 2.5 0 01.0249-.008 2.5 2.5 0 01.17415-.0491 2.5 2.5 0 01.0972-.0227 2.5 2.5 0 01.14779-.0258 2.5 2.5 0 01.0987-.0129 2.5 2.5 0 01.15192-.0108 2.5 2.5 0 01.0972-.003 2.5 2.5 0 01.15295.004 2.5 2.5 0 01.0925.007 2.5 2.5 0 01.15865.0202 2.5 2.5 0 01.091.016 2.5 2.5 0 01.1452.0336 2.5 2.5 0 01.10335.0289 2.5 2.5 0 01.13385.0455 2.5 2.5 0 01.0992.0387 2.5 2.5 0 01.12917.0584 2.5 2.5 0 01.10078.0522 2.5 2.5 0 01.10697.062 2.5 2.5 0 01.11989.078 2.5 2.5 0 01.0729.0532 2.5 2.5 0 01.13642.10955 2.5 2.5 0 01.0424.0372 2.5 2.5 0 01.15295.15038 2.5 2.5 0 01.0114.0129 2.5 2.5 0 01.12816.15141 2.5 2.5 0 000-.002 2.5 2.5 0 01.19897.29042 2.5 2.5 0 01.31676.97772v.24959a5 5 0 000 .0104v5.0131c.45672 0 .88233-.12368 1.25-.3359 0 .00026 0 .00079.003.001.009-.005.0175-.0125.0269-.0181.0743-.0442.14594-.0917.21497-.14314.0145-.0109.0295-.0214.0439-.0326.15489-.1208.29512-.25935.41754-.41289.0183-.0227.0349-.0464.0522-.0698.0412-.0555.0802-.11258.11679-.17156.0177-.0284.0351-.0566.0517-.0858.0403-.0711.0773-.1443.1106-.21962.006-.0127.0127-.0244.018-.0372.036-.0853.066-.17364.0925-.26355.0114-.0387.0204-.0783.03-.11782.0138-.0572.0259-.11492.0357-.17363.007-.0421.014-.0839.019-.12661.009-.0753.0135-.15171.0156-.22893 0-.0216.004-.0423.004-.0641v-2.5006h.0119a5 5 0 00-.008-.15916 2.5 2.5 0 01.85937-1.7332 2.5 2.5 0 01.0151-.0134 2.5 2.5 0 01.16227-.12557 2.5 2.5 0 01.0455-.0331 2.5 2.5 0 01.11938-.0754 2.5 2.5 0 01.0692-.0403 2.5 2.5 0 01.14986-.0775 2.5 2.5 0 01.0822-.0372 2.5 2.5 0 01.14574-.0568 2.5 2.5 0 01.0894-.03 2.5 2.5 0 01.14367-.0403 2.5 2.5 0 01.1075-.0248 2.5 2.5 0 01.12504-.0222 2.5 2.5 0 01.1292-.0165 2.5 2.5 0 01.11885-.008 2.5 2.5 0 01.12713-.004 2.5 2.5 0 01.12608.004 2.5 2.5 0 01.12094.009 2.5 2.5 0 01.1266.016 2.5 2.5 0 01.12713.0222 2.5 2.5 0 01.10644.0243 2.5 2.5 0 01.14624.0413 2.5 2.5 0 01.0842.0284 2.5 2.5 0 01.1483.0579 2.5 2.5 0 01.0853.0388 2.5 2.5 0 01.14314.0734 2.5 2.5 0 01.11782.0687 2.5 2.5 0 011.1142 1.6133 2.5 2.5 0 01.003.0181 2.5 2.5 0 01.0341.22789 2.5 2.5 0 01.003.0238 2.5 2.5 0 01.0109.21859h-.003v2.513c0 1.385 1.1151 2.5001 2.5001 2.5001v-5.0131a5 5 0 00-.003-.046 5 5 0 00-.014-.28267 5 5 0 00-.0305-.31522 5 5 0 00-.0238-.15814 5 5 0 00-.0692-.34881 5 5 0 00-.032-.12506 5 5 0 00-.1111-.36483 5 5 0 00-.0362-.0982 5 5 0 00-.15711-.3762 5 5 0 00-.0331-.0687 5 5 0 00-.15399-.30386 5 5 0 00-.3421-.5085 5 5 0 00-.014-.0176 5 5 0 00-.29921-.35863 5 5 0 00-.048-.0486 5 5 0 00-.29922-.29352 5 5 0 00-.0951-.0791 5 5 0 00-.28525-.22841 5 5 0 00-.13901-.0951 5 5 0 00-.27027-.17466 5 5 0 00-.0398-.0258 5 5 0 00-.32039-.1695 5 5 0 00-.29662-.12661 5 5 0 00-.16381-.0687 5 5 0 00-.32194-.10025 5 5 0 00-.15402-.047 5 5 0 00-.3488-.0718 5 5 0 00-.14057-.0284 5 5 0 00-.2744-.0284 5 5 0 00-.23151-.0222 5 5 0 00-.0103-.001 5 5 0 00-.23616.00053 5 5 0 00-.23617-.00053 5 5 0 00-.0103.001 5 5 0 00-.23151.0222 5 5 0 00-.2744.0284 5 5 0 00-.14729.0295 5 5 0 00-.34055.0703 5 5 0 00-.17208.0527 5 5 0 00-.30541.0951 5 5 0 00-.15346.0646 5 5 0 00-.3085.13177 5 5 0 00-.31885.16847 5 5 0 00-.0383.0248 5 5 0 00-.31626.20619 5 5 0 00-.0785.0537 5 5 0 00-.80616.72502 5 5 0 00-3.5011-1.6738 5 5 0 00-.44648.001 2.5 2.5 0 00-.029-.002 5 5 0 00-.0151.002 5 5 0 00-.28009.0284 5 5 0 00-.20878.0217 5 5 0 00-.17621.0341 5 5 0 00-.22067.0434 5 5 0 00-.0264.008 5 5 0 00-.37878.10904 5 5 0 00-.0946.0295 5 5 0 00-.39172.15709 5 5 0 00-.0667.0284 5 5 0 00-.40048.2036 5 5 0 00-.47027.31213 5 5 0 00-.0274.0207c-.45546-.60537-1.1781-.99735-1.9973-.99735z" fill="#fff" fill-opacity=".33" style="paint-order:markers fill stroke"/>
<path transform="matrix(.066937 0 0 .066937 38.147 168.09)" d="m84.861 47.846c-6.4984-.015028-13.049.819-19.49 2.5449-12.883 3.4521-24.359 10.209-33.48 19.33v.001953c-9.121 9.1209-15.884 20.601-19.336 33.484-6.9038 25.766.46879 53.29 19.33 72.152l-.00586.0039c-18.862 18.862-26.238 46.39-19.334 72.156 6.9037 25.766 27.048 45.913 52.814 52.816 25.766 6.904 53.296-.47391 72.158-19.336l105.64-105.64-100.36-100.36.0039-.005859-5.2773-5.2773c-14.147-14.146-33.167-21.83-52.662-21.875zm-.029297 14.926c15.598.035148 30.798 6.1854 42.127 17.514l-84.51 84.512c-15.105-15.105-21.005-37.097-15.477-57.73 2.7644-10.317 8.1715-19.504 15.465-26.797 7.2936-7.2936 16.476-12.697 26.793-15.461 5.1584-1.3822 10.402-2.0488 15.602-2.0371zm52.686 28.082 84.512 84.512-84.512 84.51-84.512-84.51 84.512-84.512zm-95.074 95.074 84.51 84.512c-15.104 15.105-37.095 21.005-57.729 15.477-20.634-5.5288-36.729-21.626-42.258-42.26-5.5288-20.634.37226-42.624 15.477-57.729z" color="#000000" color-rendering="auto" dominant-baseline="auto" fill="#faa" image-rendering="auto" shape-rendering="auto" solid-color="#000000" style="font-feature-settings:normal;font-variant-alternates:normal;font-variant-caps:normal;font-variant-ligatures:normal;font-variant-numeric:normal;font-variant-position:normal;isolation:auto;mix-blend-mode:normal;paint-order:markers stroke fill;shape-padding:0;text-decoration-color:#000000;text-decoration-line:none;text-decoration-style:solid;text-indent:0;text-orientation:mixed;text-transform:none;white-space:normal"/>
</g>
</svg>
