<?xml version="1.0" encoding="UTF-8"?>
<svg width="734.95" height="350.73" version="1.1" viewBox="0 0 146.99 70.146">
<g transform="matrix(2.9879 0 0 2.9879 -113.98 -502.23)">
<path d="m86.671 180.9c-1.385 0-2.5001 1.1151-2.5001 2.5001 0.0216 1.4199 0.24642 3.8183-1.0036 4.5078-0.7369 0.37637-1.402 0.44592-1.9731 0.44534 0.17528 1.1926 1.3135 3.1151 3.4795 1.5436 0.45545 0.60537 1.1781 0.99735 1.9973 0.99735v-4.9995zm-12.233 9.9937a5 5 0 0 1-2.7352-0.66405 5 5 0 0 1-2.4944-4.33h-2e-3v-4.9997c1.385 0 2.5001 1.1151 2.5001 2.5001v2.4996h-2e-3a2.5 2.5 0 0 0 1.248 2.1647 2.5 2.5 0 0 0 3.4148-0.91469 2.5 2.5 0 0 0 0.3328-1.2376h-4e-3v-2.513c0-1.385 1.1151-2.5001 2.5001-2.5001v5.0131h-5.1e-4a5 5 0 0 1-0.66353 2.4877 5 5 0 0 1-4.0943 2.4939zm-10.231-0.66485a5 5 0 0 0 1.8298-6.8302 5 5 0 0 0-6.8297-1.83 5 5 0 0 0-1.8305 6.83 5 5 0 0 0 6.8304 1.8302zm-1.25-2.1652a2.5 2.5 0 0 1-3.4152-0.9151 2.5 2.5 0 0 1 0.91535-3.4148 2.5 2.5 0 0 1 3.415 0.91465 2.5 2.5 0 0 1-0.91511 3.4152zm-1.0147-19.297a5 5 0 0 0-2.7352 0.66402 5 5 0 0 0-1.8304 6.8301 5 5 0 0 0 6.8306 1.8299 5 5 0 0 0 0.49764-0.33332c0.45516 0.60891 1.1799 1.0036 2.0019 1.0036v-4.9997h-6e-3a5 5 0 0 0-0.66404-2.5006 5 5 0 0 0-4.0943-2.4939zm-0.29404 2.4949a2.5 2.5 0 0 1 2.2236 1.249 2.5 2.5 0 0 1-0.91468 3.4148 2.5 2.5 0 0 1-3.4153-0.91466 2.5 2.5 0 0 1 0.91519-3.4148 2.5 2.5 0 0 1 1.1911-0.33436zm7.5582-2.4953v9.9955c1.1257 0 2.0726-0.73706 2.388-1.7565 0.0241-0.0781 0.0449-0.15756 0.0615-0.23874 6e-5 -2.6e-4 -8e-5 -7.9e-4 0-1e-3 0.0164-0.0812 0.0292-0.16363 0.0377-0.24753 3e-5 -2.6e-4 -5e-5 -7.9e-4 0-1e-3 8e-3 -0.0839 0.013-0.16908 0.013-0.25529v-2.5734a2.5 2.5 0 0 1 0.0196-0.24908 2.5 2.5 0 0 1 0.19999-0.70539 2.5 2.5 0 0 1 0.0135-0.03 2.5 2.5 0 0 1 0.97512-1.0862 2.5 2.5 0 0 1 3e-3 -2e-3 2.5 2.5 0 0 1 0.0796-0.0434 2.5 2.5 0 0 1 0.16277-0.0832 2.5 2.5 0 0 1 0.0661-0.0279 2.5 2.5 0 0 1 0.17105-0.0667 2.5 2.5 0 0 1 0.0249-8e-3 2.5 2.5 0 0 1 0.17415-0.0491 2.5 2.5 0 0 1 0.0972-0.0227 2.5 2.5 0 0 1 0.14779-0.0258 2.5 2.5 0 0 1 0.0987-0.0129 2.5 2.5 0 0 1 0.15192-0.0108 2.5 2.5 0 0 1 0.0972-3e-3 2.5 2.5 0 0 1 0.15295 4e-3 2.5 2.5 0 0 1 0.0925 7e-3 2.5 2.5 0 0 1 0.15865 0.0202 2.5 2.5 0 0 1 0.091 0.016 2.5 2.5 0 0 1 0.1452 0.0336 2.5 2.5 0 0 1 0.10335 0.0289 2.5 2.5 0 0 1 0.13385 0.0455 2.5 2.5 0 0 1 0.0992 0.0387 2.5 2.5 0 0 1 0.12917 0.0584 2.5 2.5 0 0 1 0.10078 0.0522 2.5 2.5 0 0 1 0.10697 0.062 2.5 2.5 0 0 1 0.11989 0.078 2.5 2.5 0 0 1 0.0729 0.0532 2.5 2.5 0 0 1 0.13642 0.10955 2.5 2.5 0 0 1 0.0424 0.0372 2.5 2.5 0 0 1 0.15295 0.15038 2.5 2.5 0 0 1 0.0114 0.0129 2.5 2.5 0 0 1 0.12816 0.15141 2.5 2.5 0 0 0 0-2e-3 2.5 2.5 0 0 1 0.19897 0.29042 2.5 2.5 0 0 1 0.31676 0.97772v0.24959a5 5 0 0 0 0 0.0104v5.0131c0.45672 0 0.88233-0.12368 1.25-0.3359 0 2.6e-4 0 7.9e-4 3e-3 1e-3 9e-3 -5e-3 0.0175-0.0125 0.0269-0.0181 0.0743-0.0442 0.14594-0.0917 0.21497-0.14314 0.0145-0.0109 0.0295-0.0214 0.0439-0.0326 0.15489-0.1208 0.29512-0.25935 0.41754-0.41289 0.0183-0.0227 0.0349-0.0464 0.0522-0.0698 0.0412-0.0555 0.0802-0.11258 0.11679-0.17156 0.0177-0.0284 0.0351-0.0566 0.0517-0.0858 0.0403-0.0711 0.0773-0.1443 0.1106-0.21962 6e-3 -0.0127 0.0127-0.0244 0.018-0.0372 0.036-0.0853 0.066-0.17364 0.0925-0.26355 0.0114-0.0387 0.0204-0.0783 0.03-0.11782 0.0138-0.0572 0.0259-0.11492 0.0357-0.17363 7e-3 -0.0421 0.014-0.0839 0.019-0.12661 9e-3 -0.0753 0.0135-0.15171 0.0156-0.22893 0-0.0216 4e-3 -0.0423 4e-3 -0.0641v-2.5006h0.0119a5 5 0 0 0-8e-3 -0.15916 2.5 2.5 0 0 1 0.85937-1.7332 2.5 2.5 0 0 1 0.0151-0.0134 2.5 2.5 0 0 1 0.16227-0.12557 2.5 2.5 0 0 1 0.0455-0.0331 2.5 2.5 0 0 1 0.11938-0.0754 2.5 2.5 0 0 1 0.0692-0.0403 2.5 2.5 0 0 1 0.14986-0.0775 2.5 2.5 0 0 1 0.0822-0.0372 2.5 2.5 0 0 1 0.14574-0.0568 2.5 2.5 0 0 1 0.0894-0.03 2.5 2.5 0 0 1 0.14367-0.0403 2.5 2.5 0 0 1 0.1075-0.0248 2.5 2.5 0 0 1 0.12504-0.0222 2.5 2.5 0 0 1 0.1292-0.0165 2.5 2.5 0 0 1 0.11885-8e-3 2.5 2.5 0 0 1 0.12713-4e-3 2.5 2.5 0 0 1 0.12608 4e-3 2.5 2.5 0 0 1 0.12094 9e-3 2.5 2.5 0 0 1 0.1266 0.016 2.5 2.5 0 0 1 0.12713 0.0222 2.5 2.5 0 0 1 0.10644 0.0243 2.5 2.5 0 0 1 0.14624 0.0413 2.5 2.5 0 0 1 0.0842 0.0284 2.5 2.5 0 0 1 0.1483 0.0579 2.5 2.5 0 0 1 0.0853 0.0388 2.5 2.5 0 0 1 0.14314 0.0734 2.5 2.5 0 0 1 0.11782 0.0687 2.5 2.5 0 0 1 1.1142 1.6133 2.5 2.5 0 0 1 3e-3 0.0181 2.5 2.5 0 0 1 0.0341 0.22789 2.5 2.5 0 0 1 3e-3 0.0238 2.5 2.5 0 0 1 0.0109 0.21859h-3e-3v2.513c0 1.385 1.1151 2.5001 2.5001 2.5001v-5.0131a5 5 0 0 0-3e-3 -0.046 5 5 0 0 0-0.014-0.28267 5 5 0 0 0-0.0305-0.31522 5 5 0 0 0-0.0238-0.15814 5 5 0 0 0-0.0692-0.34881 5 5 0 0 0-0.032-0.12506 5 5 0 0 0-0.1111-0.36483 5 5 0 0 0-0.0362-0.0982 5 5 0 0 0-0.15711-0.3762 5 5 0 0 0-0.0331-0.0687 5 5 0 0 0-0.15399-0.30386 5 5 0 0 0-0.3421-0.5085 5 5 0 0 0-0.014-0.0176 5 5 0 0 0-0.29921-0.35863 5 5 0 0 0-0.048-0.0486 5 5 0 0 0-0.29922-0.29352 5 5 0 0 0-0.0951-0.0791 5 5 0 0 0-0.28525-0.22841 5 5 0 0 0-0.13901-0.0951 5 5 0 0 0-0.27027-0.17466 5 5 0 0 0-0.0398-0.0258 5 5 0 0 0-0.32039-0.1695 5 5 0 0 0-0.29662-0.12661 5 5 0 0 0-0.16381-0.0687 5 5 0 0 0-0.32194-0.10025 5 5 0 0 0-0.15402-0.047 5 5 0 0 0-0.3488-0.0718 5 5 0 0 0-0.14057-0.0284 5 5 0 0 0-0.2744-0.0284 5 5 0 0 0-0.23151-0.0222 5 5 0 0 0-0.0103-1e-3 5 5 0 0 0-0.23616 5.3e-4 5 5 0 0 0-0.23617-5.3e-4 5 5 0 0 0-0.0103 1e-3 5 5 0 0 0-0.23151 0.0222 5 5 0 0 0-0.2744 0.0284 5 5 0 0 0-0.14729 0.0295 5 5 0 0 0-0.34055 0.0703 5 5 0 0 0-0.17208 0.0527 5 5 0 0 0-0.30541 0.0951 5 5 0 0 0-0.15346 0.0646 5 5 0 0 0-0.3085 0.13177 5 5 0 0 0-0.31885 0.16847 5 5 0 0 0-0.0383 0.0248 5 5 0 0 0-0.31626 0.20619 5 5 0 0 0-0.0785 0.0537 5 5 0 0 0-0.80616 0.72502 5 5 0 0 0-3.5011-1.6738 5 5 0 0 0-0.44648 1e-3 2.5 2.5 0 0 0-0.029-2e-3 5 5 0 0 0-0.0151 2e-3 5 5 0 0 0-0.28009 0.0284 5 5 0 0 0-0.20878 0.0217 5 5 0 0 0-0.17621 0.0341 5 5 0 0 0-0.22067 0.0434 5 5 0 0 0-0.0264 8e-3 5 5 0 0 0-0.37878 0.10904 5 5 0 0 0-0.0946 0.0295 5 5 0 0 0-0.39172 0.15709 5 5 0 0 0-0.0667 0.0284 5 5 0 0 0-0.40048 0.2036 5 5 0 0 0-0.47027 0.31213 5 5 0 0 0-0.0274 0.0207c-0.45546-0.60537-1.1781-0.99735-1.9973-0.99735z" fill="#fff" fill-opacity=".33" style="paint-order:markers fill stroke"/>
<path transform="matrix(.066937 0 0 .066937 38.147 168.09)" d="m84.861 47.846c-6.4984-0.015028-13.049 0.819-19.49 2.5449-12.883 3.4521-24.359 10.209-33.48 19.33v0.001953c-9.121 9.1209-15.884 20.601-19.336 33.484-6.9038 25.766 0.46879 53.29 19.33 72.152l-0.00586 0.0039c-18.862 18.862-26.238 46.39-19.334 72.156 6.9037 25.766 27.048 45.913 52.814 52.816 25.766 6.904 53.296-0.47391 72.158-19.336l105.64-105.64-100.36-100.36 0.0039-0.005859-5.2773-5.2773c-14.147-14.146-33.167-21.83-52.662-21.875zm-0.029297 14.926c15.598 0.035148 30.798 6.1854 42.127 17.514l-84.51 84.512c-15.105-15.105-21.005-37.097-15.477-57.73 2.7644-10.317 8.1715-19.504 15.465-26.797 7.2936-7.2936 16.476-12.697 26.793-15.461 5.1584-1.3822 10.402-2.0488 15.602-2.0371zm52.686 28.082 84.512 84.512-84.512 84.51-84.512-84.51 84.512-84.512zm-95.074 95.074 84.51 84.512c-15.104 15.105-37.095 21.005-57.729 15.477-20.634-5.5288-36.729-21.626-42.258-42.26-5.5288-20.634 0.37226-42.624 15.477-57.729z" color="#000000" color-rendering="auto" dominant-baseline="auto" fill="#faa" image-rendering="auto" shape-rendering="auto" solid-color="#000000" style="font-feature-settings:normal;font-variant-alternates:normal;font-variant-caps:normal;font-variant-ligatures:normal;font-variant-numeric:normal;font-variant-position:normal;isolation:auto;mix-blend-mode:normal;paint-order:markers stroke fill;shape-padding:0;text-decoration-color:#000000;text-decoration-line:none;text-decoration-style:solid;text-indent:0;text-orientation:mixed;text-transform:none;white-space:normal"/>
</g>
</svg>
