<?xml version="1.0" encoding="UTF-8"?>
<svg version="1.1" viewBox="0 0 63.698 63.698" xmlns="http://www.w3.org/2000/svg" >

<g transform="translate(-30.895 -147.22)">
<g transform="translate(380.24 -13.607)" fill-opacity=".33">
<path transform="scale(.26458)" d="m-1175.6 689.28v37.778c4.2545 0 7.8336-2.7857 9.0254-6.6387 0.091-0.29504 0.1698-0.59553 0.2324-0.90234 2e-4 -1e-3 -3e-4 -3e-3 0-4e-3 0.062-0.30685 0.1104-0.61846 0.1426-0.93554 1e-4 -1e-3 -2e-4 -3e-3 0-4e-3 0.032-0.31713 0.049-0.63903 0.049-0.96484v-9.7266a9.4488 9.4488 0 0 1 0.074-0.9414 9.4488 9.4488 0 0 1 0.7559-2.666 9.4488 9.4488 0 0 1 0.051-0.11328 9.4488 9.4488 0 0 1 3.6855-4.1055 9.4488 9.4488 0 0 1 0.01-6e-3 9.4488 9.4488 0 0 1 0.3008-0.16406 9.4488 9.4488 0 0 1 0.6152-0.31445 9.4488 9.4488 0 0 1 0.25-0.10547 9.4488 9.4488 0 0 1 0.6465-0.25196 9.4488 9.4488 0 0 1 0.094-0.0293 9.4488 9.4488 0 0 1 0.6582-0.18555 9.4488 9.4488 0 0 1 0.3672-0.0859 9.4488 9.4488 0 0 1 0.5586-0.0976 9.4488 9.4488 0 0 1 0.3731-0.0488 9.4488 9.4488 0 0 1 0.5742-0.041 9.4488 9.4488 0 0 1 0.3672-0.01 9.4488 9.4488 0 0 1 0.5781 0.0156 9.4488 9.4488 0 0 1 0.3496 0.0254 9.4488 9.4488 0 0 1 0.5996 0.0762 9.4488 9.4488 0 0 1 0.3438 0.0606 9.4488 9.4488 0 0 1 0.5488 0.12695 9.4488 9.4488 0 0 1 0.3906 0.10938 9.4488 9.4488 0 0 1 0.5059 0.17188 9.4488 9.4488 0 0 1 0.375 0.14648 9.4488 9.4488 0 0 1 0.4882 0.2207 9.4488 9.4488 0 0 1 0.3809 0.19727 9.4488 9.4488 0 0 1 0.4043 0.23437 9.4488 9.4488 0 0 1 0.4531 0.29492 9.4488 9.4488 0 0 1 0.2754 0.20118 9.4488 9.4488 0 0 1 0.5156 0.41406 9.4488 9.4488 0 0 1 0.1602 0.14062 9.4488 9.4488 0 0 1 0.5781 0.56836 9.4488 9.4488 0 0 1 0.043 0.0488 9.4488 9.4488 0 0 1 0.4844 0.57227 9.4488 9.4488 0 0 0 0-6e-3 9.4488 9.4488 0 0 1 0.752 1.0976 9.4488 9.4488 0 0 1 1.1972 3.6953v0.94336a18.898 18.898 0 0 0 0 0.0391v18.947c1.7262 0 3.3348-0.46743 4.7246-1.2695 0 1e-3 0 3e-3 0.01 4e-3 0.035-0.0205 0.066-0.0474 0.1016-0.0684 0.2808-0.16711 0.5516-0.34657 0.8125-0.54102 0.055-0.0412 0.1115-0.0807 0.166-0.12304 0.5854-0.45658 1.1154-0.98021 1.5781-1.5606 0.069-0.0858 0.1317-0.17549 0.1973-0.26367 0.1557-0.20995 0.3032-0.42552 0.4414-0.64844 0.067-0.10731 0.1328-0.21407 0.1953-0.32422 0.1521-0.26892 0.2923-0.54541 0.418-0.83008 0.021-0.0479 0.048-0.0923 0.068-0.14062 0.136-0.32247 0.2495-0.6563 0.3496-0.99609 0.043-0.14636 0.077-0.29604 0.1133-0.44532 0.052-0.21627 0.098-0.43435 0.1348-0.65625 0.027-0.15891 0.053-0.31693 0.072-0.47851 0.033-0.28456 0.051-0.57338 0.059-0.86524 0-0.0817 0.016-0.15991 0.016-0.24218v-9.4512h0.045a18.898 18.898 0 0 0-0.029-0.60156 9.4488 9.4488 0 0 1 3.248-6.5508 9.4488 9.4488 0 0 1 0.057-0.0508 9.4488 9.4488 0 0 1 0.6133-0.47461 9.4488 9.4488 0 0 1 0.1718-0.125 9.4488 9.4488 0 0 1 0.4512-0.28516 9.4488 9.4488 0 0 1 0.2617-0.15234 9.4488 9.4488 0 0 1 0.5664-0.29297 9.4488 9.4488 0 0 1 0.3106-0.14062 9.4488 9.4488 0 0 1 0.5508-0.21485 9.4488 9.4488 0 0 1 0.3378-0.11328 9.4488 9.4488 0 0 1 0.543-0.15234 9.4488 9.4488 0 0 1 0.4063-0.0937 9.4488 9.4488 0 0 1 0.4726-0.084 9.4488 9.4488 0 0 1 0.4883-0.0625 9.4488 9.4488 0 0 1 0.4492-0.0312 9.4488 9.4488 0 0 1 0.4805-0.0137 9.4488 9.4488 0 0 1 0.4765 0.0137 9.4488 9.4488 0 0 1 0.4571 0.0332 9.4488 9.4488 0 0 1 0.4785 0.0605 9.4488 9.4488 0 0 1 0.4805 0.084 9.4488 9.4488 0 0 1 0.4023 0.0918 9.4488 9.4488 0 0 1 0.5527 0.15625 9.4488 9.4488 0 0 1 0.3184 0.10743 9.4488 9.4488 0 0 1 0.5605 0.21875 9.4488 9.4488 0 0 1 0.3223 0.14648 9.4488 9.4488 0 0 1 0.541 0.27734 9.4488 9.4488 0 0 1 0.4453 0.25977 9.4488 9.4488 0 0 1 4.211 6.0977 9.4488 9.4488 0 0 1 0.012 0.0684 9.4488 9.4488 0 0 1 0.1289 0.86133 9.4488 9.4488 0 0 1 0.01 0.0899 9.4488 9.4488 0 0 1 0.041 0.82617h-0.01v9.498c0 5.2346 4.2146 9.4492 9.4492 9.4492v-18.947a18.898 18.898 0 0 0-0.01-0.17383 18.898 18.898 0 0 0-0.053-1.0684 18.898 18.898 0 0 0-0.1152-1.1914 18.898 18.898 0 0 0-0.09-0.59766 18.898 18.898 0 0 0-0.2617-1.3184 18.898 18.898 0 0 0-0.1211-0.47266 18.898 18.898 0 0 0-0.4199-1.3789 18.898 18.898 0 0 0-0.1367-0.3711 18.898 18.898 0 0 0-0.5938-1.4219 18.898 18.898 0 0 0-0.125-0.25977 18.898 18.898 0 0 0-0.582-1.1484 18.898 18.898 0 0 0-1.293-1.9219 18.898 18.898 0 0 0-0.053-0.0664 18.898 18.898 0 0 0-1.1309-1.3555 18.898 18.898 0 0 0-0.1816-0.1836 18.898 18.898 0 0 0-1.1309-1.1094 18.898 18.898 0 0 0-0.3594-0.29883 18.898 18.898 0 0 0-1.0781-0.86328 18.898 18.898 0 0 0-0.5254-0.35938 18.898 18.898 0 0 0-1.0215-0.66015 18.898 18.898 0 0 0-0.1504-0.0977 18.898 18.898 0 0 0-1.2109-0.64063 18.898 18.898 0 0 0-1.1211-0.47851 18.898 18.898 0 0 0-0.6191-0.25977 18.898 18.898 0 0 0-1.2168-0.3789 18.898 18.898 0 0 0-0.5821-0.17774 18.898 18.898 0 0 0-1.3183-0.27148 18.898 18.898 0 0 0-0.5313-0.10742 18.898 18.898 0 0 0-1.0371-0.10743 18.898 18.898 0 0 0-0.875-0.084 18.898 18.898 0 0 0-0.039-4e-3 18.898 18.898 0 0 0-0.8926 2e-3 18.898 18.898 0 0 0-0.8926-2e-3 18.898 18.898 0 0 0-0.039 4e-3 18.898 18.898 0 0 0-0.875 0.084 18.898 18.898 0 0 0-1.0371 0.10743 18.898 18.898 0 0 0-0.5567 0.11132 18.898 18.898 0 0 0-1.2871 0.26563 18.898 18.898 0 0 0-0.6504 0.19922 18.898 18.898 0 0 0-1.1543 0.35937 18.898 18.898 0 0 0-0.58 0.24414 18.898 18.898 0 0 0-1.166 0.49805 18.898 18.898 0 0 0-1.2051 0.63672 18.898 18.898 0 0 0-0.1446 0.0937 18.898 18.898 0 0 0-1.1953 0.7793 18.898 18.898 0 0 0-0.2968 0.20312 18.898 18.898 0 0 0-3.0469 2.7402 18.898 18.898 0 0 0-13.232-6.3262 18.898 18.898 0 0 0-1.6875 4e-3 9.4488 9.4488 0 0 0-0.1094-6e-3 18.898 18.898 0 0 0-0.057 6e-3 18.898 18.898 0 0 0-1.0586 0.10742 18.898 18.898 0 0 0-0.7891 0.082 18.898 18.898 0 0 0-0.666 0.12891 18.898 18.898 0 0 0-0.834 0.16406 18.898 18.898 0 0 0-0.1 0.0293 18.898 18.898 0 0 0-1.4316 0.41211 18.898 18.898 0 0 0-0.3574 0.11133 18.898 18.898 0 0 0-1.4805 0.59375 18.898 18.898 0 0 0-0.252 0.10742 18.898 18.898 0 0 0-1.5136 0.76953 18.898 18.898 0 0 0-1.7774 1.1797 18.898 18.898 0 0 0-0.1035 0.0781c-1.7214-2.288-4.4526-3.7695-7.5488-3.7695z" style="paint-order:markers fill stroke"/>
<path d="m-318.3 182.37a5 5 0 0 0-2.7352 0.66402 5 5 0 0 0-1.8304 6.8301 5 5 0 0 0 6.8306 1.8299 5 5 0 0 0 0.49764-0.33332c0.45516 0.60891 1.1799 1.0036 2.0019 1.0036v-4.9997h-6e-3a5 5 0 0 0-0.66404-2.5006 5 5 0 0 0-4.0943-2.4939zm-0.29404 2.4949a2.5 2.5 0 0 1 2.2236 1.249 2.5 2.5 0 0 1-0.91468 3.4148 2.5 2.5 0 0 1-3.4153-0.91466 2.5 2.5 0 0 1 0.91519-3.4148 2.5 2.5 0 0 1 1.1911-0.33436z" style="paint-order:markers fill stroke"/>
<path d="m-316.04 203.83a5 5 0 0 0 1.8298-6.8302 5 5 0 0 0-6.8297-1.83 5 5 0 0 0-1.8305 6.83 5 5 0 0 0 6.8304 1.8302zm-1.25-2.1652a2.5 2.5 0 0 1-3.4152-0.9151 2.5 2.5 0 0 1 0.91535-3.4148 2.5 2.5 0 0 1 3.415 0.91465 2.5 2.5 0 0 1-0.91511 3.4152z" style="paint-order:markers fill stroke"/>
<path d="m-305.81 204.5a5 5 0 0 1-2.7352-0.66405 5 5 0 0 1-2.4944-4.33h-2e-3v-4.9997c1.385 0 2.5001 1.1151 2.5001 2.5001v2.4996h-2e-3a2.5 2.5 0 0 0 1.248 2.1647 2.5 2.5 0 0 0 3.4148-0.91469 2.5 2.5 0 0 0 0.3328-1.2376h-4e-3v-2.513c0-1.385 1.1151-2.5001 2.5001-2.5001v5.0131h-5.1e-4a5 5 0 0 1-0.66353 2.4877 5 5 0 0 1-4.0943 2.4939z" style="paint-order:markers fill stroke"/>
<path d="m-293.57 194.5c-1.385 0-2.5001 1.1151-2.5001 2.5001 0.0216 1.4199 0.24642 3.8183-1.0036 4.5078-0.7369 0.37637-1.402 0.44592-1.9731 0.44534 0.17528 1.1926 1.3135 3.1151 3.4795 1.5436 0.45545 0.60537 1.1781 0.99735 1.9973 0.99735v-4.9995z" style="paint-order:markers fill stroke"/>
</g>
<path d="m40.282 172.76c-0.61053 0.61052-1.0632 1.379-1.2943 2.2414-0.46212 1.7247 0.0314 3.567 1.2939 4.8296l-3.71e-4 2.6e-4c-1.2625 1.2626-1.7564 3.1053-1.2943 4.8299 0.46211 1.7247 1.8106 3.0732 3.5353 3.5353 1.7247 0.46213 3.5674-0.0317 4.8299-1.2943l0.35335-0.35336 6.7177-6.7177-6.7177-6.7176 3.71e-4 -3.7e-4 -0.35335-0.35335c-1.2626-1.2626-3.1049-1.756-4.8296-1.2939-0.86235 0.23107-1.6305 0.68337-2.241 1.2939zm0.70597 0.70597c0.48821-0.48821 1.1029-0.84982 1.7934-1.0348 1.3811-0.37008 2.8531 0.0249 3.8642 1.0359l-5.6569 5.6569c-1.0111-1.0111-1.406-2.483-1.0359-3.8642 0.18504-0.69057 0.547-1.3056 1.0352-1.7938zm3.7e-4 7.0725 5.6569 5.6569c-1.011 1.011-2.483 1.406-3.8642 1.0359-1.3812-0.37008-2.4586-1.4475-2.8286-2.8286-0.37008-1.3811 0.0249-2.8531 1.0359-3.8642zm0.70706-0.70706 5.6569-5.6569 5.6569 5.6569-5.6569 5.6569z" color="#000000" color-rendering="auto" dominant-baseline="auto" fill="#faa" image-rendering="auto" shape-rendering="auto" solid-color="#000000" style="font-feature-settings:normal;font-variant-alternates:normal;font-variant-caps:normal;font-variant-ligatures:normal;font-variant-numeric:normal;font-variant-position:normal;isolation:auto;mix-blend-mode:normal;paint-order:markers stroke fill;shape-padding:0;text-decoration-color:#000000;text-decoration-line:none;text-decoration-style:solid;text-indent:0;text-orientation:mixed;text-transform:none;white-space:normal"/>
</g>
</svg>
